<svg id="Layer_1" data-name="Layer 1" xmlns="http://www.w3.org/2000/svg" viewBox="0 0 2000 2000"><defs><style>.cls-1{fill:#fff;}.cls-2{fill:#f4762f;}.cls-3{fill:#fbb03b;}.cls-4{fill:#08b7b2;}</style></defs><title>svg-1</title><rect class="cls-1" width="2000" height="2000"/><path class="cls-2" d="M1000,734.35a30.52,30.52,0,1,0-30.52-30.52A30.55,30.55,0,0,0,1000,734.35Zm0-46a15.45,15.45,0,1,1-15.45,15.44A15.46,15.46,0,0,1,1000,688.39Z"/><path class="cls-2" d="M1083.61,763.37a30.52,30.52,0,1,0-30.51-30.52A30.56,30.56,0,0,0,1083.61,763.37Zm0-46a15.45,15.45,0,1,1-15.44,15.45A15.47,15.47,0,0,1,1083.61,717.4Z"/><path class="cls-2" d="M916.37,763.37a30.52,30.52,0,1,0-30.51-30.52A30.56,30.56,0,0,0,916.37,763.37Zm0-46a15.45,15.45,0,1,1-15.44,15.45A15.47,15.47,0,0,1,916.37,717.4Z"/><path class="cls-3" d="M1134.31,824.15v15.36h-15.07V824.15a35.63,35.63,0,0,0-27.18-34.6,39.53,39.53,0,0,0-8.44-.91,40.39,40.39,0,0,0-8.4.89,35.81,35.81,0,0,0-24.53,21.06V840a109.12,109.12,0,0,0-15.07,1.93v-46.8A35.66,35.66,0,0,0,1008,760.43a39.42,39.42,0,0,0-15.9,0,35.66,35.66,0,0,0-27.67,34.71v47.38a128.49,128.49,0,0,0-15.07-1.83v-30.1a35.76,35.76,0,0,0-24.53-21.06,40.32,40.32,0,0,0-8.4-.89,39.6,39.6,0,0,0-8.44.91,35.64,35.64,0,0,0-27.18,34.6v15.36H865.69V824.15a50.79,50.79,0,0,1,38-49.09c.31-.07.61-.15.91-.2a49.25,49.25,0,0,1,11.77-1.4,50.22,50.22,0,0,1,11.1,1.24l1.37.32a50.62,50.62,0,0,1,21.25,11.31,50.78,50.78,0,0,1,38.52-40.58c.32-.09.64-.15,1-.21a50.35,50.35,0,0,1,20.84,0c.32.06.64.12,1,.21a50.75,50.75,0,0,1,38.52,40.58,50.72,50.72,0,0,1,21.61-11.4l1-.23a50.2,50.2,0,0,1,11.09-1.24,49.36,49.36,0,0,1,11.79,1.4c.31,0,.59.13.89.2A50.79,50.79,0,0,1,1134.31,824.15Z"/><path class="cls-4" d="M1099.92,974.49a166.32,166.32,0,0,1-99.92,33.22c-87.42,0-159.4-67.44-166.63-153v-.11q-.6-7.05-.61-14.23c0-.24,0-.51,0-.75v-.09h94.51c1.11,0,3.82.07,7.63.22s8.83.45,14.39,1a128.49,128.49,0,0,1,15.07,1.83l8.07,1.41.37.07.13,0,.13,0,.16,0c9.82,2,19.27,4.82,26.18,8.92a161.8,161.8,0,0,0-17.22,9,129.76,129.76,0,0,0-14.84-3.54c-4-.72-8.1-1.32-12.23-1.83-5.67-.68-11.36-1.17-16.59-1.49-4.11-.24-7.95-.37-11.33-.41h-78.7v0c6.33,68.21,57.91,123.48,124.37,135.48l-22.33-19.84a7.53,7.53,0,0,1,10-11.26l37.71,33.51c.58,0,1.15.06,1.73.06a153.06,153.06,0,0,0,20.55-1.42l-32.64-28.59a7.54,7.54,0,1,1,9.93-11.34l41.33,36.18a146.53,146.53,0,0,0,17.29-5.74l-31.27-27.28a7.53,7.53,0,1,1,9.91-11.34l34.53,30.12A7.28,7.28,0,0,1,1071,975a153.92,153.92,0,0,0,17.44-10.78v0Z"/><path class="cls-2" d="M1167.22,839.6v-.09H1063.28c-1.5,0-3,0-4.48.07h-.26l-7.36.39-.49,0a109.12,109.12,0,0,0-15.07,1.93c-.9.15-1.79.32-2.69.5A157,157,0,0,0,999.42,853a161.8,161.8,0,0,0-17.22,9l-6.74,4.27-.08,0,0,0,0,0h0l-8.23,5.48-2.43,1.62h.15l-12.15,8.1-46.35,30.88,6.61,6.5c14,13.73,50.43,32.4,88.44,5,1.83-1.19,25-15.32,50,6.76l23.92,21.58,13.23,11.93,11.44,10.32a167.16,167.16,0,0,0,66.72-119.8v-.11c.39-4.7.6-9.44.6-14.23C1167.24,840.11,1167.24,839.84,1167.22,839.6Zm-15.73,15.09a151.6,151.6,0,0,1-51.07,99.95l-22.13-20-16.92-15.26c-9.94-8.79-20.09-13.3-29.59-15.1a55.39,55.39,0,0,0-16.16-.66,54.21,54.21,0,0,0-10,2,46.81,46.81,0,0,0-12.78,5.82l-.18.13c-26.62,19.27-50,9.76-61.55,2.39l32.35-21.53,13.24-8.84,7.5-5a141.63,141.63,0,0,1,33.6-16.48,137.78,137.78,0,0,1,14.85-4.14q6.21-1.37,12.54-2.17a138.22,138.22,0,0,1,16.43-1.13c.55,0,1.11,0,1.68,0h88.21Z"/><path d="M576.38,1216l6-7.29c7.41,6.9,15.08,11.12,25.17,11.12,10.74,0,17.89-6.52,17.89-15.08v-.13c0-7.41-3.57-12.14-19.8-17.89-18.53-6.9-25.82-13.55-25.82-26.2v-.25c0-13.42,11.25-23.64,27-23.64a38.82,38.82,0,0,1,26.83,10.09l-5.75,7.41c-6.64-5.75-13.67-8.69-21.47-8.69-10.22,0-16.87,6.26-16.87,13.93v.26c0,7.79,4,12.27,20.83,18.4,18.15,6.77,24.8,14.06,24.8,25.94v.26c0,14.31-11.76,24.41-27.73,24.41C595.93,1228.63,585.71,1224.66,576.38,1216Z"/><path d="M678.36,1137.38h9.46l34.12,90H711.72L703,1203.83H662.77l-8.69,23.52h-9.84Zm21.47,57.76L683,1149.78l-17,45.36Z"/><path d="M736.89,1137.89h27c19,0,31.43,10.74,31.43,28.37v.26c0,18.91-14.31,29.14-32.58,29.26H746.48v31.57h-9.59Zm26.07,49.2c13.93,0,22.62-8,22.62-20.31v-.13c0-13-8.69-19.94-22.24-19.94H746.48v40.38Z"/><path d="M811.52,1137.89h9.59v89.46h-9.59Z"/><path d="M843.34,1137.89h54.57v8.82h-45v31.18h40.38v8.69H852.93v32h45.62v8.82H843.34Z"/><path d="M915.67,1137.89h9.08l46.77,70.42v-70.42H981v89.46h-8.05L925,1155.27v72.08h-9.33Z"/><path d="M999,1183.13v-.76c0-27.1,16.86-45.75,39.23-45.75,12.27,0,20.19,4.47,27.22,11l-5.88,7.28c-5.62-5.37-12.4-9.33-21.47-9.33-16.49,0-29.14,15.08-29.14,36.68v.51c0,22,12.65,36.93,29.14,36.93,9.2,0,15.72-3.83,22.11-10l5.75,6.65c-7.54,7.41-16.1,12.27-28.37,12.27C1015.48,1228.63,999,1210.35,999,1183.13Z"/><path d="M1081,1137.89h54.57v8.82h-45v31.18H1131v8.69h-40.38v32h45.62v8.82H1081Z"/><path d="M1186.47,1137.89h9.58v40h43.19v-40h9.59v89.46h-9.59v-40.51h-43.19v40.51h-9.58Z"/><path d="M1266.85,1183.13v-.76c0-27.1,16.87-45.75,39.23-45.75,12.27,0,20.19,4.47,27.22,11l-5.88,7.28c-5.62-5.37-12.39-9.33-21.47-9.33-16.48,0-29.13,15.08-29.13,36.68v.51c0,22,12.65,36.93,29.13,36.93,9.2,0,15.72-3.83,22.11-10l5.75,6.65c-7.54,7.41-16.1,12.27-28.37,12.27C1283.33,1228.63,1266.85,1210.35,1266.85,1183.13Z"/><path d="M1348.89,1137.89h10l27.22,47.93,27.35-47.93h10v89.46h-9.58v-72.08l-27.6,47.8h-.39l-27.6-47.8v72.08h-9.33Z"/><path d="M576.6,1296.82h3.07l8.39,14.77,8.42-14.77h3.07v27.56H596.6v-22.2l-8.5,14.72H588l-8.5-14.72v22.2H576.6Z"/><path d="M605.1,1310.8v-.31c0-8.11,4.88-14.1,11.89-14.1s11.81,5.95,11.81,14v.31c0,8.11-4.84,14.09-11.85,14.09S605.1,1318.87,605.1,1310.8Zm20.67,0v-.27c0-6.66-3.74-11.38-8.82-11.38s-8.78,4.68-8.78,11.34v.27c0,6.65,3.74,11.38,8.82,11.38S625.77,1317.41,625.77,1310.76Z"/><path d="M634.35,1296.82h7.8c7.67,0,13,5.52,13,13.63v.27c0,8.07-5.28,13.66-13,13.66h-7.8Zm2.95,2.72v22.13h4.77c6,0,10-4.37,10-10.91v-.27c0-6.54-3.94-11-10-11Z"/><path d="M660.65,1296.82h16.81v2.72H663.6v9.61H676v2.67H663.6v9.85h14.06v2.71h-17Z"/><path d="M682.93,1296.82h9.41a9.92,9.92,0,0,1,7.24,2.56,7.85,7.85,0,0,1,2.17,5.67v.08c0,4.37-2.72,7-6.54,7.95l7.4,11.3h-3.54l-6.93-10.71h-6.26v10.71h-3Zm8.9,14.18c4.48,0,7-2.25,7-5.75v-.08c0-3.62-2.52-5.63-6.65-5.63h-6.26V1311Z"/><path d="M707.37,1296.82h2.8l14.41,21.7v-21.7h2.91v27.56H725l-14.76-22.2v22.2h-2.88Z"/><path d="M744.3,1296.82h3v12.33h13.31v-12.33h3v27.56h-3V1311.9H747.25v12.48h-3Z"/><path d="M769.81,1314.11v-17.29h3V1314c0,5.19,2.64,8.07,7,8.07s6.89-2.72,6.89-7.95v-17.33h3V1314c0,7.09-4,10.86-9.92,10.86S769.81,1321,769.81,1314.11Z"/><path d="M795.87,1296.82h3.07l8.38,14.77,8.43-14.77h3.07v27.56h-3v-22.2l-8.51,14.72h-.12l-8.5-14.72v22.2h-2.87Z"/><path d="M833.93,1296.67h2.92l10.51,27.71h-3.15l-2.68-7.24h-12.4l-2.68,7.24h-3Zm6.62,17.79-5.2-14-5.23,14Z"/><path d="M852,1296.82h2.8l14.41,21.7v-21.7h2.91v27.56H869.6l-14.76-22.2v22.2H852Z"/><path d="M887.83,1310.76v-.24c0-8.34,5.19-14.09,12.08-14.09a11.49,11.49,0,0,1,8.39,3.39l-1.81,2.24a9.32,9.32,0,0,0-6.62-2.87c-5.08,0-9,4.64-9,11.3v.15c0,6.77,3.89,11.38,9,11.38a9.33,9.33,0,0,0,6.81-3.07l1.77,2a11.8,11.8,0,0,1-8.74,3.78C892.9,1324.78,887.83,1319.15,887.83,1310.76Z"/><path d="M921.6,1296.67h2.91L935,1324.38h-3.14l-2.68-7.24H916.8l-2.68,7.24h-3Zm6.61,17.79-5.19-14-5.24,14Z"/><path d="M939.63,1296.82h8.31c5.86,0,9.68,3.31,9.68,8.74v.08c0,5.83-4.41,9-10,9h-5v9.72h-3Zm8,15.16c4.29,0,7-2.48,7-6.26v0c0-4-2.68-6.14-6.85-6.14h-5.2V1312Z"/><path d="M962.62,1296.82h3v27.56h-3Z"/><path d="M978.33,1299.58h-7.72v-2.76H989v2.76h-7.75v24.8h-2.95Z"/><path d="M999.39,1296.67h2.91l10.51,27.71h-3.15l-2.67-7.24h-12.4l-2.68,7.24h-3Zm6.61,17.79-5.2-14-5.23,14Z"/><path d="M1017.42,1296.82h3v24.85h12.79v2.71h-15.74Z"/><path d="M1048,1296.82h3.07l8.39,14.77,8.42-14.77H1071v27.56h-3v-22.2l-8.5,14.72h-.12l-8.5-14.72v22.2H1048Z"/><path d="M1086.11,1296.67H1089l10.51,27.71h-3.15l-2.67-7.24h-12.4l-2.68,7.24h-3Zm6.61,17.79-5.19-14-5.24,14Z"/><path d="M1104.14,1296.82h2.79l14.41,21.7v-21.7h2.91v27.56h-2.48l-14.76-22.2v22.2h-2.87Z"/><path d="M1139.37,1296.67h2.91l10.52,27.71h-3.15l-2.68-7.24h-12.4l-2.68,7.24h-3Zm6.62,17.79-5.2-14-5.24,14Z"/><path d="M1154.92,1310.76v-.27c0-8,5-14.06,12.28-14.06a12.12,12.12,0,0,1,8.35,3l-1.77,2.37a9.4,9.4,0,0,0-6.66-2.56c-5.23,0-9.13,4.72-9.13,11.3v.19c0,6.93,3.74,11.42,9.41,11.42a9.93,9.93,0,0,0,5.94-2v-7.76h-6.89v-2.63h9.73v11.81a14.25,14.25,0,0,1-8.9,3.23C1159.76,1324.78,1154.92,1319.07,1154.92,1310.76Z"/><path d="M1182.24,1296.82h3.07l8.39,14.77,8.42-14.77h3.07v27.56h-3v-22.2l-8.5,14.72h-.12l-8.51-14.72v22.2h-2.87Z"/><path d="M1211.8,1296.82h16.81v2.72h-13.85v9.61h12.44v2.67h-12.44v9.85h14v2.71h-17Z"/><path d="M1234.08,1296.82h2.8l14.41,21.7v-21.7h2.91v27.56h-2.48l-14.76-22.2v22.2h-2.88Z"/><path d="M1266.72,1299.58H1259v-2.76h18.43v2.76h-7.76v24.8h-3Z"/><path d="M1290.57,1320.88l1.85-2.25c2.29,2.13,4.65,3.43,7.76,3.43,3.3,0,5.51-2,5.51-4.65v0c0-2.28-1.1-3.74-6.1-5.51-5.71-2.12-7.95-4.17-7.95-8.07v-.08c0-4.13,3.46-7.28,8.3-7.28a12,12,0,0,1,8.27,3.11l-1.77,2.28a9.88,9.88,0,0,0-6.62-2.67c-3.15,0-5.19,1.93-5.19,4.29v.08c0,2.4,1.22,3.78,6.41,5.67,5.59,2.08,7.64,4.33,7.64,8v.08c0,4.41-3.62,7.52-8.54,7.52A13.58,13.58,0,0,1,1290.57,1320.88Z"/><path d="M1320.06,1313.28l-9.69-16.46h3.43l7.79,13.47,7.8-13.47h3.35l-9.69,16.38v11.18h-3Z"/><path d="M1334,1320.88l1.85-2.25c2.29,2.13,4.65,3.43,7.76,3.43,3.31,0,5.51-2,5.51-4.65v0c0-2.28-1.1-3.74-6.1-5.51-5.71-2.12-8-4.17-8-8.07v-.08c0-4.13,3.46-7.28,8.3-7.28a12,12,0,0,1,8.27,3.11l-1.77,2.28a9.88,9.88,0,0,0-6.62-2.67c-3.14,0-5.19,1.93-5.19,4.29v.08c0,2.4,1.22,3.78,6.42,5.67,5.59,2.08,7.63,4.33,7.63,8v.08c0,4.41-3.62,7.52-8.54,7.52A13.58,13.58,0,0,1,1334,1320.88Z"/><path d="M1362.65,1299.58h-7.71v-2.76h18.42v2.76h-7.76v24.8h-2.95Z"/><path d="M1378.16,1296.82H1395v2.72h-13.85v9.61h12.43v2.67h-12.43v9.85h14.05v2.71h-17Z"/><path d="M1400.44,1296.82h3.07l8.39,14.77,8.42-14.77h3.07v27.56h-3v-22.2l-8.5,14.72h-.12l-8.5-14.72v22.2h-2.88Z"/></svg>